<svg width="268" height="53" viewBox="0 0 268 53" fill="none" xmlns="http://www.w3.org/2000/svg">
<path d="M74.1975 15.5335V8.32739C75.7741 8.32739 77.0514 9.61999 77.0514 11.2155V25.9025H74.1975V18.2965H66.7533V25.9025H63.8994V8.33144C65.4761 8.33144 66.7533 9.62402 66.7533 11.2196V15.5376H74.1975V15.5335Z" fill="#040738"/>
<path d="M96.6503 25.9024H93.5729L92.3555 22.3639H84.9632L83.7498 25.9024H80.6484L86.951 8.3313H88.0926C89.4617 8.3313 90.687 9.19976 91.1501 10.5045L96.6503 25.9064V25.9024ZM88.6634 11.7203L85.9092 19.6535H91.4175L88.6634 11.7203Z" fill="#040738"/>
<path d="M106.074 16.8906L113.342 25.9024H109.945L103.1 17.541V25.9024H100.246V8.3313C101.823 8.3313 103.1 9.62388 103.1 11.2194V16.2161L108.824 9.37748C109.379 8.71503 110.193 8.3313 111.051 8.3313H113.095L106.074 16.8906Z" fill="#040738"/>
<path d="M129.963 23.5918C128.227 25.3489 126.099 26.2254 123.589 26.2254C121.078 26.2254 118.943 25.3489 117.186 23.5918C115.45 21.8185 114.584 19.6575 114.584 17.1127C114.584 14.5679 115.45 12.419 117.186 10.6619C118.939 8.88865 121.074 8 123.589 8C126.103 8 128.227 8.88865 129.963 10.6619C131.715 12.419 132.594 14.5679 132.594 17.1127C132.594 19.6575 131.715 21.8145 129.963 23.5918ZM119.198 21.6327C120.404 22.8203 121.868 23.4141 123.589 23.4141C125.309 23.4141 126.778 22.8203 127.955 21.6327C129.145 20.429 129.74 18.9223 129.74 17.1127C129.74 15.3031 129.145 13.8086 127.955 12.621C126.782 11.4173 125.325 10.8154 123.589 10.8154C121.852 10.8154 120.388 11.4173 119.198 12.621C118.025 13.8086 117.438 15.3071 117.438 17.1127C117.438 18.9183 118.025 20.4088 119.198 21.6327Z" fill="#040738"/>
<path d="M147.154 16.7896C147.916 17.1895 148.511 17.747 148.942 18.4579C149.373 19.1688 149.589 19.9767 149.589 20.8815C149.589 22.3195 149.082 23.5151 148.076 24.4724C147.066 25.4257 145.833 25.9024 144.38 25.9024H136.936V8.3313H143.833C145.254 8.3313 146.455 8.79987 147.429 9.73699C148.419 10.6741 148.918 11.8294 148.918 13.2027C148.918 14.7094 148.331 15.905 147.158 16.7937M143.833 11.0457H139.789V15.6627H143.833C144.46 15.6627 144.99 15.4405 145.421 14.9962C145.853 14.5519 146.068 14.0025 146.068 13.3522C146.068 12.7018 145.853 12.1525 145.421 11.7082C144.99 11.2638 144.464 11.0417 143.833 11.0417M139.789 23.192H144.38C145.042 23.192 145.597 22.9537 146.052 22.477C146.507 22.0004 146.735 21.4187 146.735 20.732C146.735 20.0454 146.507 19.4637 146.052 18.987C145.597 18.5104 145.038 18.2721 144.38 18.2721H139.789V23.192Z" fill="#040738"/>
<path d="M164.873 8.32727H166.382L160.331 18.9224V25.9024H157.477V18.9224L151.426 8.32727H152.939C154.012 8.32727 154.998 8.91701 155.517 9.86626L158.922 16.107L162.303 9.8703C162.818 8.91702 163.807 8.32324 164.885 8.32324" fill="#040738"/>
<path d="M182.133 25.9024H179.055L177.838 22.3639H170.446L169.232 25.9024H166.131L172.433 8.3313H173.575C174.944 8.3313 176.169 9.19976 176.632 10.5045L182.133 25.9064V25.9024ZM174.146 11.7203L171.392 19.6535H176.9L174.146 11.7203Z" fill="#040738"/>
<path d="M196.146 20.2515V8.32739H196.885C198.054 8.32739 199 9.28472 199 10.4682V25.8985H196.769L188.582 13.9744V25.8985H185.729V8.32739H186.355C187.361 8.32739 188.307 8.82827 188.878 9.66441L196.146 20.2515Z" fill="#040738"/>
<path d="M72.703 44.6266H71.6382L70.697 42.1155H65.9054L64.9642 44.6266H63.8994L67.7878 34.3994H68.8241L72.7125 44.6266H72.703ZM68.3012 35.6694L66.2667 41.1534H70.3357L68.3012 35.6694Z" fill="#040738"/>
<path d="M78.6441 44.799C77.1039 44.799 75.8395 44.2891 74.8508 43.2693C73.8525 42.2398 73.3486 40.9795 73.3486 39.5171C73.3486 38.0547 73.8525 36.7943 74.8508 35.7649C75.8395 34.745 77.1039 34.2351 78.6441 34.2351C79.5663 34.2351 80.4219 34.4564 81.2015 34.9182C81.9811 35.3704 82.5895 35.9862 83.0174 36.7558L82.1237 37.285C81.81 36.6596 81.3346 36.169 80.7071 35.7937C80.0797 35.4281 79.3952 35.2357 78.6441 35.2357C77.3701 35.2357 76.3434 35.6494 75.5543 36.4768C74.7557 37.3139 74.3564 38.3337 74.3564 39.5267C74.3564 40.7197 74.7557 41.7395 75.5543 42.5862C76.3434 43.4136 77.3701 43.8273 78.6441 43.8273C79.3952 43.8273 80.0797 43.6445 80.7071 43.2693C81.3346 42.894 81.8004 42.4034 82.1237 41.778L83.0174 42.2879C82.6086 43.0576 82.0001 43.6733 81.211 44.1255C80.4219 44.5873 79.5663 44.8086 78.6441 44.8086" fill="#040738"/>
<path d="M89.6929 44.799C88.1527 44.799 86.8883 44.2891 85.8996 43.2693C84.9013 42.2398 84.3975 40.9795 84.3975 39.5171C84.3975 38.0547 84.9013 36.7943 85.8996 35.7649C86.8883 34.745 88.1527 34.2351 89.6929 34.2351C90.6151 34.2351 91.4707 34.4564 92.2503 34.9182C93.0299 35.3704 93.6383 35.9862 94.0662 36.7558L93.1725 37.285C92.8588 36.6596 92.3834 36.169 91.7559 35.7937C91.1285 35.4281 90.4439 35.2357 89.6929 35.2357C88.4189 35.2357 87.3922 35.6494 86.6031 36.4768C85.8045 37.3139 85.4052 38.3337 85.4052 39.5267C85.4052 40.7197 85.8045 41.7395 86.6031 42.5862C87.3922 43.4136 88.4189 43.8273 89.6929 43.8273C90.4439 43.8273 91.1285 43.6445 91.7559 43.2693C92.3834 42.894 92.8492 42.4034 93.1725 41.778L94.0662 42.2879C93.6574 43.0576 93.0489 43.6733 92.2598 44.1255C91.4707 44.5873 90.6151 44.8086 89.6929 44.8086" fill="#040738"/>
<path d="M104.38 43.2691C103.372 44.2889 102.136 44.8085 100.672 44.8085C99.2082 44.8085 97.9722 44.2985 96.9645 43.2691C95.9567 42.23 95.4434 40.9697 95.4434 39.5169C95.4434 38.0641 95.9472 36.7941 96.9645 35.7743C97.9722 34.7449 99.2082 34.2253 100.672 34.2253C102.136 34.2253 103.372 34.7449 104.38 35.7743C105.388 36.7941 105.901 38.0449 105.901 39.5169C105.901 40.9889 105.397 42.23 104.38 43.2691ZM97.668 42.5667C98.4761 43.3942 99.4744 43.8079 100.672 43.8079C101.87 43.8079 102.868 43.3942 103.677 42.5667C104.485 41.7393 104.893 40.7195 104.893 39.5169C104.893 38.3143 104.485 37.3041 103.677 36.4767C102.868 35.6396 101.87 35.2259 100.672 35.2259C99.4744 35.2259 98.4761 35.6396 97.668 36.4767C96.8599 37.3041 96.4511 38.3143 96.4511 39.5169C96.4511 40.7195 96.8504 41.7393 97.668 42.5667Z" fill="#040738"/>
<path d="M107.7 41.1534V34.3994H108.708V41.1534C108.708 41.9808 108.946 42.635 109.44 43.1064C109.925 43.5779 110.6 43.8184 111.456 43.8184C112.311 43.8184 112.986 43.5779 113.471 43.1064C113.956 42.635 114.203 41.9808 114.203 41.1534V34.3994H115.211V41.1534C115.211 42.2598 114.869 43.1545 114.175 43.8088C113.471 44.4726 112.568 44.7997 111.456 44.7997C110.343 44.7997 109.44 44.4726 108.746 43.8088C108.052 43.1449 107.71 42.2598 107.71 41.1534" fill="#040738"/>
<path d="M124.156 42.7312V34.3994H125.174V44.6266H124.309L118.671 36.2948V44.6266H117.663V34.3994H118.528L124.156 42.7312Z" fill="#040738"/>
<path d="M126.903 34.3994H134.129V35.3615H131.02V44.6266H130.012V35.3615H126.903V34.3994Z" fill="#040738"/>
<path d="M136.865 34.3994H135.857V44.6266H136.865V34.3994Z" fill="#040738"/>
<path d="M145.964 42.7312V34.3994H146.972V44.6266H146.106L140.478 36.2948V44.6266H139.461V34.3994H140.336L145.964 42.7312Z" fill="#040738"/>
<path d="M154.18 39.7576H159.237V40.2867C159.237 41.5567 158.791 42.6246 157.897 43.5002C156.994 44.366 155.796 44.799 154.303 44.799C152.811 44.799 151.499 44.2891 150.51 43.2693C149.512 42.2398 149.008 40.9795 149.008 39.5171C149.008 38.0547 149.512 36.7943 150.51 35.7649C151.499 34.745 152.763 34.2351 154.303 34.2351C155.225 34.2351 156.081 34.466 156.87 34.9182C157.65 35.38 158.249 35.9861 158.677 36.7462L157.783 37.2754C157.469 36.65 156.994 36.1497 156.366 35.7841C155.739 35.4185 155.054 35.2261 154.303 35.2261C153.029 35.2261 152.003 35.6398 151.213 36.4672C150.415 37.3042 150.016 38.3241 150.016 39.5171C150.016 40.7101 150.415 41.7299 151.213 42.5765C152.003 43.404 153.029 43.8177 154.303 43.8177C155.444 43.8177 156.347 43.529 157.032 42.9518C157.707 42.3649 158.097 41.6241 158.201 40.7293H154.189V39.7672L154.18 39.7576Z" fill="#040738"/>
<path d="M171.766 42.8267L173.126 44.2891L172.232 44.799L171.167 43.6445C170.407 44.4141 169.418 44.799 168.192 44.799C167.213 44.799 166.404 44.5392 165.777 44.0293C165.168 43.5002 164.864 42.7978 164.864 41.9127C164.864 41.2585 165.026 40.6812 165.359 40.1617C165.691 39.6421 166.176 39.2381 166.813 38.9494C166.309 38.3818 166.062 37.7372 166.062 37.0252C166.062 36.1786 166.347 35.4955 166.927 34.9952C167.498 34.4853 168.163 34.2351 168.952 34.2351C169.599 34.2351 170.188 34.4179 170.721 34.7931C171.253 35.1684 171.633 35.659 171.871 36.2652L171.015 36.7654C170.873 36.2844 170.616 35.9092 170.245 35.6398C169.874 35.3704 169.447 35.2261 168.971 35.2261C168.448 35.2261 168.002 35.3896 167.631 35.7071C167.26 36.0246 167.079 36.448 167.079 36.9579C167.079 37.2946 167.155 37.5929 167.298 37.8526C167.441 38.122 167.678 38.4299 168.021 38.7762L171.063 42.0666C171.339 41.499 171.529 40.8544 171.614 40.1232L172.508 40.6523C172.375 41.5086 172.128 42.2398 171.776 42.8267M168.163 43.808C169.123 43.808 169.894 43.5098 170.473 42.9037L167.498 39.6999C166.946 39.9019 166.537 40.2001 166.281 40.585C166.015 40.9698 165.882 41.4028 165.882 41.8742C165.882 42.4707 166.081 42.9421 166.49 43.2885C166.899 43.6348 167.46 43.808 168.154 43.808" fill="#040738"/>
<path d="M183.546 44.799C182.006 44.799 180.742 44.2891 179.753 43.2693C178.755 42.2398 178.251 40.9795 178.251 39.5171C178.251 38.0547 178.755 36.7943 179.753 35.7649C180.742 34.745 182.006 34.2351 183.546 34.2351C184.469 34.2351 185.324 34.4564 186.104 34.9182C186.883 35.3704 187.492 35.9862 187.92 36.7558L187.026 37.285C186.712 36.6596 186.237 36.169 185.609 35.7937C184.982 35.4281 184.297 35.2357 183.546 35.2357C182.272 35.2357 181.246 35.6494 180.457 36.4768C179.658 37.3139 179.259 38.3337 179.259 39.5267C179.259 40.7197 179.658 41.7395 180.457 42.5862C181.246 43.4136 182.272 43.8273 183.546 43.8273C184.297 43.8273 184.982 43.6445 185.609 43.2693C186.237 42.894 186.703 42.4034 187.026 41.778L187.92 42.2879C187.511 43.0576 186.902 43.6733 186.113 44.1255C185.324 44.5873 184.469 44.8086 183.546 44.8086" fill="#040738"/>
<path d="M198.227 43.2691C197.219 44.2889 195.983 44.8085 194.519 44.8085C193.055 44.8085 191.819 44.2985 190.811 43.2691C189.803 42.23 189.29 40.9697 189.29 39.5169C189.29 38.0641 189.794 36.7941 190.811 35.7743C191.819 34.7449 193.055 34.2253 194.519 34.2253C195.983 34.2253 197.219 34.7449 198.227 35.7743C199.234 36.7941 199.748 38.0449 199.748 39.5169C199.748 40.9889 199.244 42.23 198.227 43.2691ZM191.515 42.5667C192.323 43.3942 193.321 43.8079 194.519 43.8079C195.717 43.8079 196.715 43.3942 197.523 42.5667C198.331 41.7393 198.74 40.7195 198.74 39.5169C198.74 38.3143 198.331 37.3041 197.523 36.4767C196.715 35.6396 195.717 35.2259 194.519 35.2259C193.321 35.2259 192.323 35.6396 191.515 36.4767C190.707 37.3041 190.298 38.3143 190.298 39.5169C190.298 40.7195 190.697 41.7393 191.515 42.5667Z" fill="#040738"/>
<path d="M208.264 42.7312V34.3994H209.281V44.6266H208.406L202.778 36.2948V44.6266H201.771V34.3994H202.636L208.264 42.7312Z" fill="#040738"/>
<path d="M214.91 44.7988C213.987 44.7988 213.198 44.5775 212.533 44.135C211.877 43.6924 211.411 43.0767 211.154 42.307L212.019 41.7971C212.2 42.4417 212.542 42.9323 213.037 43.2883C213.531 43.6347 214.159 43.8175 214.919 43.8175C215.68 43.8175 216.241 43.6539 216.668 43.3172C217.087 42.9901 217.305 42.5379 217.305 41.9703C217.305 41.4315 217.115 41.0274 216.725 40.758C216.355 40.4886 215.718 40.2 214.824 39.9114C213.759 39.5554 213.065 39.2668 212.742 39.0647C211.972 38.5933 211.592 37.9198 211.592 37.0347C211.592 36.1495 211.886 35.4857 212.485 34.9854C213.075 34.4755 213.807 34.2253 214.691 34.2253C215.452 34.2253 216.127 34.4274 216.716 34.8315C217.305 35.2356 217.743 35.7647 218.028 36.4285L217.172 36.9096C216.706 35.7839 215.879 35.2163 214.691 35.2163C214.054 35.2163 213.55 35.3799 213.17 35.6877C212.79 36.0052 212.599 36.4382 212.599 36.9769C212.599 37.5157 212.771 37.8717 213.122 38.1218C213.474 38.372 214.054 38.6318 214.843 38.8915L215.623 39.1705C215.784 39.2186 216.022 39.3052 216.317 39.4303C216.649 39.5554 216.868 39.6612 216.992 39.7478C217.505 40.0557 217.828 40.3443 217.961 40.6137C218.199 40.9985 218.323 41.4411 218.323 41.9318C218.323 42.7977 218.009 43.4904 217.381 44.0195C216.754 44.5391 215.936 44.7892 214.91 44.7892" fill="#040738"/>
<path d="M220.196 41.1534V34.3994H221.204V41.1534C221.204 41.9808 221.451 42.635 221.936 43.1064C222.421 43.5779 223.096 43.8184 223.952 43.8184C224.807 43.8184 225.482 43.5779 225.967 43.1064C226.452 42.635 226.699 41.9808 226.699 41.1534V34.3994H227.707V41.1534C227.707 42.2598 227.365 43.1545 226.671 43.8088C225.967 44.4726 225.064 44.7997 223.952 44.7997C222.839 44.7997 221.936 44.4726 221.242 43.8088C220.548 43.1449 220.206 42.2598 220.206 41.1534" fill="#040738"/>
<path d="M231.167 34.3994V43.6645H235.787V44.6266H230.159V34.3994H231.167Z" fill="#040738"/>
<path d="M235.645 34.3994H242.86V35.3615H239.752V44.6266H238.744V35.3615H235.645V34.3994Z" fill="#040738"/>
<path d="M245.599 34.3994H244.591V44.6266H245.599V34.3994Z" fill="#040738"/>
<path d="M254.697 42.7312V34.3994H255.715V44.6266H254.85L249.212 36.2948V44.6266H248.204V34.3994H249.069L254.697 42.7312Z" fill="#040738"/>
<path d="M262.921 39.7576H267.979V40.2867C267.979 41.5567 267.532 42.6246 266.638 43.5002C265.735 44.366 264.537 44.799 263.044 44.799C261.552 44.799 260.24 44.2891 259.251 43.2693C258.253 42.2398 257.749 40.9795 257.749 39.5171C257.749 38.0547 258.253 36.7943 259.251 35.7649C260.24 34.745 261.504 34.2351 263.044 34.2351C263.967 34.2351 264.822 34.466 265.611 34.9182C266.391 35.38 266.99 35.9861 267.418 36.7462L266.524 37.2754C266.21 36.65 265.735 36.1497 265.108 35.7841C264.48 35.4185 263.796 35.2261 263.044 35.2261C261.771 35.2261 260.744 35.6398 259.955 36.4672C259.156 37.3042 258.757 38.3241 258.757 39.5171C258.757 40.7101 259.156 41.7299 259.955 42.5765C260.744 43.404 261.771 43.8177 263.044 43.8177C264.185 43.8177 265.089 43.529 265.773 42.9518C266.448 42.3649 266.838 41.6241 266.942 40.7293H262.93V39.7672L262.921 39.7576Z" fill="#040738"/>
<path d="M42.2796 53H10.7204C4.82295 53 0 48.177 0 42.2796V10.7204C0 4.82295 4.82295 0 10.7204 0H42.2796C48.177 0 53 4.82295 53 10.7204V42.2796C53 48.177 48.177 53 42.2796 53Z" fill="url(#paint0_linear_912_2423)"/>
<path d="M36.927 29.7166L32.7827 43.1918H28.2344L31.5103 32.9576C33.2351 32.7261 34.8266 31.9159 36.0222 30.6665L36.931 29.7166H36.927Z" fill="white"/>
<path d="M10.4336 43.7095L19.5988 14.7233C19.7887 14.1254 20.3421 13.7215 20.9682 13.7215H21.8891C22.8505 13.7215 23.5412 14.6505 23.2625 15.5715L19.9018 27.5118C19.9018 27.5118 31.7087 31.8298 34.4514 23.8441L37.6465 13.7255H36.7215C36.2207 13.7255 35.9621 13.1277 36.3055 12.7642L39.3915 9.47617C39.642 9.20957 40.0782 9.24593 40.2842 9.55292L42.4695 12.8409C42.7199 13.2206 42.4493 13.7296 41.9928 13.7296H41.1042L38.8987 22.6807C38.2969 25.5648 36.3822 29.8061 33.0659 31.3289C33.0659 31.3289 27.3988 33.9504 21.053 32.2095L18.6981 31.4784L14.9819 43.7135H10.4336V43.7095Z" fill="white"/>
<defs>
<linearGradient id="paint0_linear_912_2423" x1="26.0916" y1="6.68073" x2="26.0916" y2="42.9501" gradientUnits="userSpaceOnUse">
<stop stop-color="#033FFF"/>
<stop offset="1" stop-color="#0E1476"/>
</linearGradient>
</defs>
</svg>
