<svg width="330" height="329" viewBox="0 0 330 329" fill="none" xmlns="http://www.w3.org/2000/svg">
<mask id="mask0_338_940" style="mask-type:luminance" maskUnits="userSpaceOnUse" x="0" y="0" width="330" height="329">
<path d="M66.5523 0H262.473C299.209 0 329.025 29.8156 329.025 66.5523V262.448C329.025 299.184 299.209 329 262.473 329H66.5523C29.8156 329 0 299.184 0 262.448V66.5523C0 29.8156 29.8156 0 66.5523 0Z" fill="white"/>
</mask>
<g mask="url(#mask0_338_940)">
<path d="M159.88 -164.483L-164.428 169.126L169.181 493.434L493.489 159.824L159.88 -164.483Z" fill="url(#paint0_linear_338_940)"/>
</g>
<path d="M62.0801 273.127L120.516 90.1277C121.726 86.3534 125.255 83.8032 129.247 83.8032H135.119C141.248 83.8032 145.652 89.6686 143.875 95.483L122.448 170.866C122.448 170.866 197.727 198.127 215.214 147.71L235.585 83.8288H229.687C226.494 83.8288 224.846 80.0545 227.035 77.7594L246.711 57.0011C248.308 55.318 251.089 55.5475 252.402 57.4856L266.335 78.2439C267.932 80.641 266.207 83.8543 263.296 83.8543H257.63L243.569 140.366C239.731 158.574 227.524 185.351 206.38 194.965C206.38 194.965 170.247 211.515 129.787 200.524L114.773 195.908L91.0791 273.153H62.0801V273.127Z" fill="white"/>
<path d="M229.67 186.24L203.045 273.153H173.824L194.87 207.145C205.951 205.652 216.176 200.426 223.857 192.368L229.696 186.24H229.67Z" fill="white"/>
<defs>
<linearGradient id="paint0_linear_338_940" x1="37.2786" y1="45.7716" x2="265.576" y2="267.704" gradientUnits="userSpaceOnUse">
<stop stop-color="#033FFF"/>
<stop offset="1" stop-color="#0E1476"/>
</linearGradient>
</defs>
</svg>
