<svg width="53" height="53" viewBox="0 0 53 53" fill="none" xmlns="http://www.w3.org/2000/svg">
<path d="M42.2796 53H10.7204C4.82295 53 0 48.177 0 42.2796V10.7204C0 4.82295 4.82295 0 10.7204 0H42.2796C48.177 0 53 4.82295 53 10.7204V42.2796C53 48.177 48.177 53 42.2796 53Z" fill="white"/>
<path d="M36.927 29.7166L32.7827 43.1918H28.2344L31.5103 32.9576C33.2351 32.7261 34.8266 31.9159 36.0222 30.6665L36.931 29.7166H36.927Z" fill="#040738"/>
<path d="M10.4336 43.7095L19.5988 14.7233C19.7887 14.1254 20.3421 13.7215 20.9682 13.7215H21.8891C22.8505 13.7215 23.5412 14.6505 23.2625 15.5715L19.9018 27.5118C19.9018 27.5118 31.7087 31.8298 34.4514 23.8441L37.6465 13.7255H36.7215C36.2207 13.7255 35.9621 13.1277 36.3055 12.7642L39.3915 9.47617C39.642 9.20957 40.0782 9.24593 40.2842 9.55292L42.4695 12.8409C42.7199 13.2206 42.4493 13.7296 41.9928 13.7296H41.1042L38.8987 22.6807C38.2969 25.5648 36.3822 29.8061 33.0659 31.3289C33.0659 31.3289 27.3988 33.9504 21.053 32.2095L18.6981 31.4784L14.9819 43.7135H10.4336V43.7095Z" fill="#040738"/>
</svg>
